<?xml version="1.0" encoding="UTF-8"?>
<svg id="Layer_3" data-name="Layer 3" xmlns="http://www.w3.org/2000/svg" viewBox="0 0 772.72 761.9">
	<rect x="223.89" y="312.77" width="324.94" height="357.14" style="fill: #0659b4; stroke-width: 0px;" />
	<path d="m712.69,312.77h60.03v55.61h-4.42c-30.69,0-55.61-24.92-55.61-55.61h0Z" style="fill: #0659b4; stroke-width: 0px;" />
	<path d="m717.11,614.28h55.61v55.61h0c-30.69,0-55.61-24.92-55.61-55.61h0Z" transform="translate(1387 -102.83) rotate(90)" style="fill: #0659b4; stroke-width: 0px;" />
	<path d="m0,614.29h55.61v55.61h0C24.92,669.91,0,644.99,0,614.29H0Z" transform="translate(55.61 1284.2) rotate(-180)" style="fill: #0659b4; stroke-width: 0px;" />
	<path d="m0,312.78h55.61v55.61h0C24.92,368.4,0,343.48,0,312.78H0Z" transform="translate(-312.78 368.4) rotate(-90)" style="fill: #0659b4; stroke-width: 0px;" />
	<path d="m37.28,215.32h698.17c20.57,0,37.28,16.7,37.28,37.28v41.73H0v-41.73C0,232.02,16.71,215.32,37.28,215.32Z" style="fill: #017aff; stroke-width: 0px;" />
	<path d="m0,682.89h772.72v41.73c0,20.57-16.7,37.28-37.28,37.28H37.28C16.71,761.9,0,745.19,0,724.62v-41.73H0Z" style="fill: #017aff; stroke-width: 0px;" />
	<path d="m204,312.77v357.14h-125.54C70.34,599.02,0,597.4,0,597.4v-212.12s70.34-1.63,78.46-72.51h125.54Z" style="fill: #017aff; stroke-width: 0px;" />
	<polygon points="691.19 0 691.19 58.8 228.72 164.86 691.19 0" style="fill: #017aff; stroke-width: 0px;" />
	<polygon points="691.19 72.65 114 203.96 691.19 203.96 691.19 72.65" style="fill: #0659b4; stroke-width: 0px;" />
	<path d="m772.71,442.74v97.18h-113.42c-1.76,0-3.51-.27-5.18-.82-.08-.03-.16-.05-.24-.08-13.69-4.6-22.8-17.6-22.8-32.05v-33.6c0-7.78,2.89-15.37,8.37-20.88.32-.32.64-.63.96-.93,6.25-5.8,14.59-8.82,23.11-8.82h109.2Z" style="fill: #3f8cde; stroke-width: 0px;" />
	<path d="m772.72,385.28s-70.35-1.62-78.46-72.51h-125.54v178.57h0v178.57h125.54c8.12-70.89,78.46-72.51,78.46-72.51v-106.06h0v-106.06Zm-.28,183.2h-131.6c-21.53,0-40.81-14.03-46.71-34.74-.18-.65-.36-1.3-.53-1.97-.28-1.12-.41-2.28-.41-3.44v-36.99s0-37.96,0-37.96c0-.52.06-1.03.18-1.54.08-.32.15-.64.23-.95,5.48-21.71,25.35-36.7,47.74-36.7h131.09v154.3Z" style="fill: #017aff; stroke-width: 0px;" />
	<circle cx="680.81" cy="491.33" r="29.15" style="fill: #0659b4; stroke-width: 0px;" />
</svg>
